<svg fill="none" height="18" viewBox="0 0 27 18" width="27" xmlns="http://www.w3.org/2000/svg"><path d="m26.5781 8.0625c.2813.375.4219.84375.4219 1.3125v6.375c0 1.2656-1.0312 2.25-2.25 2.25h-22.5c-1.265625 0-2.25-.9844-2.25-2.25v-6.375c0-.42188.140625-.98438.375-1.3125l4.92188-7.078125c.375-.515625 1.21874-.984375 1.875-.984375h12.60932c.6563 0 1.5.46875 1.875.984375zm-19.40622-5.8125-3.65626 5.25h5.71876l1.50002 3h5.4844l1.5-3h5.7187l-3.6563-5.25zm17.57812 13.5v-6h-5.625l-1.5 3h-8.25l-1.5-3h-5.625v6z" fill="#2e1401"/></svg>