<svg fill="none" height="24" viewBox="0 0 24 24" width="24" xmlns="http://www.w3.org/2000/svg"><path d="m12 10.3125c.9141 0 1.6875.7734 1.6875 1.6875 0 .9492-.7734 1.6875-1.6875 1.6875-.9492 0-1.6875-.7383-1.6875-1.6875 0-.9141.7383-1.6875 1.6875-1.6875zm-1.6875-3.65625c0-.91406.7383-1.6875 1.6875-1.6875.9141 0 1.6875.77344 1.6875 1.6875 0 .94922-.7734 1.6875-1.6875 1.6875-.9492 0-1.6875-.73828-1.6875-1.6875zm0 10.68755c0-.9141.7383-1.6876 1.6875-1.6876.9141 0 1.6875.7735 1.6875 1.6876 0 .9492-.7734 1.6874-1.6875 1.6874-.9492 0-1.6875-.7382-1.6875-1.6874z" fill="#2e1401"/></svg>