<svg fill="none" height="24" viewBox="0 0 24 24" width="24" xmlns="http://www.w3.org/2000/svg"><path d="m24 12.0352c0 .5625-.375 1.125-.9375 1.3593l-3.7031 1.5938 3.7031 1.6406c.5625.2344.8906.7969.8906 1.4063 0 .5625-.3281 1.125-.8906 1.3593l-10.2187 4.4532c-.2813.0937-.5626.1406-.8907.1406-.2343 0-.6093-.0469-.8437-.1406l-10.218775-4.4532c-.5625-.2343-.890625-.7968-.890625-1.3593 0-.6094.328125-1.1719.890625-1.4063l3.703125-1.6406-3.703125-1.5938c-.5625-.2343-.890625-.7968-.890625-1.3593 0-.6094.328125-1.1719.890625-1.4063l3.703125-1.64062-3.703125-1.59375c-.5625-.23437-.890625-.79687-.890625-1.40625 0-.5625.328125-1.125.890625-1.35937l10.218775-4.453129c.5625-.2343748 1.1718-.2343748 1.7344 0l10.2187 4.453129c.5625.23437.9375.79687.9375 1.35937 0 .60938-.375 1.17188-.9375 1.40625l-3.7031 1.59375 3.7031 1.64062c.5625.2344.9375.7969.9375 1.4063zm-12-9.75004-8.67188 3.70312 8.67188 3.79688 8.625-3.75zm8.625 15.75004-4.125-1.7813-3.6562 1.5938c-.2813.0937-.5626.1406-.8438.1406s-.6562-.0469-.8906-.1406l-3.65628-1.5938-4.125 1.7344 8.67188 3.7969zm-8.625-2.25 8.625-3.75-4.125-1.7813-3.6562 1.5938c-.2813.0937-.5626.1406-.8438.1406s-.6562-.0469-.8906-.1406l-3.65628-1.5938-4.125 1.7344z" fill="#2e1401"/></svg>