<svg fill="none" height="16" viewBox="0 0 16 16" width="16" xmlns="http://www.w3.org/2000/svg"><path d="m9.48438 7.98438 3.37502 3.37502c.1875.1875.1875.5312 0 .7187l-.7813.7813c-.1875.1875-.5312.1875-.7187 0l-3.34378-3.37502-3.375 3.37502c-.1875.1875-.53124.1875-.71874 0l-.78126-.7813c-.1875-.1875-.1875-.5312 0-.7187l3.375-3.37502-3.375-3.34376c-.1875-.1875-.1875-.53124 0-.71874l.78126-.78126c.1875-.1875.53124-.1875.71874 0l3.375 3.375 3.34378-3.375c.1875-.1875.5312-.1875.7187 0l.7813.78126c.1875.1875.1875.53124 0 .71874z" fill="#2e1401"/></svg>