<svg fill="none" height="16" viewBox="0 0 16 16" width="16" xmlns="http://www.w3.org/2000/svg"><path d="m11.6129 7.54839v.90322c0 .19758-.1694.33871-.3387.33871h-2.48388v2.48388c0 .1976-.16935.3387-.33871.3387h-.90322c-.19758 0-.33871-.1411-.33871-.3387v-2.48388h-2.48387c-.19758 0-.33871-.14113-.33871-.33871v-.90322c0-.16936.14113-.33871.33871-.33871h2.48387v-2.48387c0-.16936.14113-.33871.33871-.33871h.90322c.16936 0 .33871.16935.33871.33871v2.48387h2.48388c.1693 0 .3387.16935.3387.33871zm3.3871.45161c0 3.8669-3.1331 7-7 7-3.86694 0-7-3.1331-7-7 0-3.86694 3.13306-7 7-7 3.8669 0 7 3.13306 7 7zm-1.3548 0c0-3.10484-2.5404-5.64516-5.6452-5.64516-3.13306 0-5.64516 2.54032-5.64516 5.64516 0 3.1331 2.5121 5.6452 5.64516 5.6452 3.1048 0 5.6452-2.5121 5.6452-5.6452z" fill="#2e1401"/></svg>