<svg fill="none" height="16" viewBox="0 0 16 16" width="16" xmlns="http://www.w3.org/2000/svg"><path d="m8 1c3.8387 0 7 3.16129 7 7 0 3.8669-3.1613 7-7 7-3.86694 0-7-3.1331-7-7 0-3.83871 3.13306-7 7-7zm0 1.35484c-3.13306 0-5.64516 2.54032-5.64516 5.64516 0 3.1331 2.5121 5.6452 5.64516 5.6452 3.1048 0 5.6452-2.5121 5.6452-5.6452 0-3.10484-2.5404-5.64516-5.6452-5.64516zm3.9516 3.69758c.1129.1129.1129.33871 0 .47984l-4.88305 4.82664c-.14113.1411-.33871.1411-.47984 0l-2.56855-2.5968c-.1129-.11291-.1129-.33871 0-.47984l.64919-.62097c.14113-.14113.33871-.14113.47984 0l1.69355 1.69355 3.97986-3.95161c.1411-.14113.3669-.14113.4798 0z" fill="#000"/></svg>