<svg fill="none" height="16" viewBox="0 0 16 16" width="16" xmlns="http://www.w3.org/2000/svg"><path d="m15.7852 12.4919-2.5 2.2812c-.4688.4688-1.2813.1563-1.2813-.5312v-1.25h-.9687c-.125 0-.2188-.0313-.2813-.125l-2.81249-3.03128 1.1875-1.28125 2.49999 2.68753h.375v-1.50003c0-.65625.8125-1 1.2813-.53125l2.5 2.21878c.2812.3125.2812.7812 0 1.0625zm-15.406294-7.75003c-.21875 0-.37499975-.15625-.37499975-.375v-1c0-.1875.15624975-.375.37499975-.375h3.468754c.09375 0 .1875.0625.25.125l2.8125 3.03125-1.1875 1.3125-2.5-2.71875zm15.406294-1.28125c.2812.28125.2812.75 0 1.03125l-2.5 2.28125c-.4688.5-1.2813.15625-1.2813-.53125v-1.5h-.375l-7.53124 8.15623c-.0625.0625-.15625.0938-.25.0938h-3.468754c-.21875 0-.37499975-.1563-.37499975-.375v-1c0-.1875.15624975-.375.37499975-.375h2.843754l7.53124-8.12503c.0625-.0625.1563-.125.2813-.125h.9687v-1.25c0-.65625.8125-.999997 1.2813-.5z" fill="#2e1401"/></svg>