<svg fill="none" height="24" viewBox="0 0 30 24" width="30" xmlns="http://www.w3.org/2000/svg"><path d="m26.2969 0c2.0156 0 3.7031 1.64062 3.7031 3.60938v14.71872c0 1.875-1.5469 3.4688-3.4688 3.5625-1.7343.0938-6.0468.4688-8.8124 1.8282-.375.1874-.7969.2812-1.2188.2812h-3.0469c-.4219 0-.8437-.0938-1.2187-.2812-2.76565-1.3594-7.07815-1.7344-8.81252-1.8282-1.92188-.0937-3.42188-1.6875-3.42188-3.5625v-14.71872c0-1.96876 1.64062-3.60938 3.65625-3.60938.5625 0 7.26565.328125 11.34375 2.67188 4.0312-2.343755 10.7344-2.67188 11.2969-2.67188zm-12.4219 20.5781v-10.0781l-.0469-4.96875c0-.5625-.3281-1.125-.8906-1.35937-3.375-1.54688-8.39062-1.875-9.28125-1.92188-.79687 0-1.40625.60938-1.40625 1.35938v14.71872c0 .7031.5625 1.2657 1.3125 1.3125 2.0625.1406 6.28125.4688 9.2813 1.6406.5156.1876 1.0312-.1874 1.0312-.7031zm13.875-2.25v-14.71872c0-.75-.6562-1.35938-1.4531-1.35938-.8907.04688-5.9063.375-9.2813 1.92188-.5625.23437-.8906.79687-.8906 1.35937v15.04685c0 .5157.4688.8907.9844.7031 3-1.1718 7.2187-1.5 9.2812-1.6406.75-.0468 1.3594-.6094 1.3594-1.3125z" fill="#2e1401"/></svg>