<svg fill="none" height="24" viewBox="0 0 26 24" width="26" xmlns="http://www.w3.org/2000/svg"><path d="m23.9531 10.7344c.9844.8437 1.5469 2.0625 1.5 3.3281 0 1.5469-.75 2.9531-2.0156 3.7969-.0469 2.2031-1.8281 4.0312-4.0313 4.125-.75 1.2656-2.1093 2.0156-3.6093 2.0156-1.2188 0-2.2969-.5156-3.0938-1.3125-.75.7969-1.8281 1.3125-3.04685 1.3125-1.5 0-2.85937-.75-3.60937-2.0156-2.20313-.0938-3.98438-1.9219-4.03126-4.125-1.26562-.8438-2.01562-2.25-2.01562-3.7969 0-1.2656.515625-2.4844 1.5-3.3281-.09375-.375-.14062-.75002-.14062-1.07815 0-1.54687.75-2.95313 2.01562-3.79687.04688-1.875 1.40625-3.42188 3.1875-3.75.65625-1.26563 1.96875-2.10938 3.42188-2.10938.89062 0 2.10942.515625 2.76562 1.17188.6562-.70313 1.6406-1.17188 2.7188-1.17188 1.4531 0 2.7656.84375 3.4218 2.10938 1.7813.32812 3.1406 1.875 3.1875 3.75 1.2657.84374 2.0157 2.25 2.0157 3.79687 0 .32813-.0469.70315-.1407 1.07815zm-12.375 9.0937v-15.93748c0-.89062-.7031-1.59374-1.59372-1.59374-.70313 0-1.35938.46874-1.54688 1.17187l-.23438.89063-1.03124-.04688c-.79688 0-1.5.70312-1.5 1.59375 0 .1875 0 .23437.23437 1.26563l-.89063.375c-.60937.23437-1.96874 1.40624-1.17187 3.09372l.46875.9375-.89062.5157c-1.6875.9843-1.5 3.375.23437 4.0781l.84375.3281s-.1875 1.1719-.1875 1.3125c0 1.1719 1.125 2.0625 2.25 1.875l.9375-.1406c.28125.8437.60938 2.2031 2.15625 2.2031 1.07815 0 1.92185-.8438 1.92185-1.9219zm10.2188-3.6562c1.7343-.7031 1.9219-3.0938.2343-4.0781l-.8906-.5157.4688-.9375c.7968-1.68748-.5625-2.85935-1.1719-3.09372l-.8906-.375c.2343-1.03126.2343-1.07813.2343-1.26563 0-.89063-.7031-1.59375-1.5-1.59375l-1.0781.04688-.1875-.89063c-.1875-.70313-.8437-1.21875-1.5468-1.21875-.8907 0-1.5938.75-1.5938 1.59375v15.98435c0 1.0781.8438 1.9219 1.9219 1.9219 1.5469 0 1.875-1.3594 2.1562-2.2031l.9375.1406c1.125.1875 2.25-.7031 2.25-1.875 0-.1406-.1875-1.3125-.1875-1.3125z" fill="#2e1401"/></svg>