<svg fill="none" height="16" viewBox="0 0 16 16" width="16" xmlns="http://www.w3.org/2000/svg"><path d="m1.56452 1.59274 1.46774 1.46774c1.27016-1.27016 3.02016-2.06048 4.93951-2.06048 3.86693 0 7.02823 3.16129 7.02823 7.02823-.0282 3.86697-3.1613 6.97177-7 6.97177-1.80645 0-3.47177-.6774-4.71371-1.7782-.14113-.1412-.14113-.367 0-.5081l.56452-.5645c.1129-.1129.31048-.1129.45161 0 .9879.875 2.25806 1.3831 3.69758 1.3831 3.0484 0 5.5323-2.4557 5.5323-5.5323 0-3.04839-2.4839-5.53226-5.5323-5.53226-1.55242 0-2.93548.62097-3.92339 1.6371l1.5242 1.52419c.2258.22581.05645.56452-.22581.56452h-4.03629c-.19758 0-.33871-.14113-.33871-.33871v-4.03629c0-.28226.33871-.45161.56452-.22581z" fill="#000"/></svg>