<svg fill="none" height="16" viewBox="0 0 16 16" width="16" xmlns="http://www.w3.org/2000/svg"><path d="m9.20312 12.375c-.1914 0-.32812-.1367-.32812-.3281v-5.90628c0-.16406.13672-.32812.32812-.32812h.65626c.16402 0 .32812.16406.32812.32812v5.90628c0 .1914-.1641.3281-.32812.3281zm4.48438-9.1875c.2187 0 .4375.21875.4375.4375v.4375c0 .24609-.2188.4375-.4375.4375h-.4375v9.1875c0 .7383-.6016 1.3125-1.3125 1.3125h-7.875c-.73828 0-1.3125-.5742-1.3125-1.3125v-9.1875h-.4375c-.24609 0-.4375-.19141-.4375-.4375v-.4375c0-.21875.19141-.4375.4375-.4375h2.24219l.92969-1.53125c.21874-.35547.71093-.65625 1.12109-.65625h2.76172c.41015 0 .90231.30078 1.12111.65625l.9297 1.53125zm-7.13672-.79297-.46484.79297h3.80078l-.46484-.79297c-.02735-.02734-.10938-.08203-.13672-.08203h-2.59766c-.02734 0-.10938.05469-.13672.08203zm5.38672 11.29297v-9.1875h-7.875v9.1875zm-5.79688-1.3125c-.1914 0-.32812-.1367-.32812-.3281v-5.90628c0-.16406.13672-.32812.32812-.32812h.65626c.16406 0 .32812.16406.32812.32812v5.90628c0 .1914-.16406.3281-.32812.3281z" fill="#2e1401"/></svg>