<svg fill="none" height="16" viewBox="0 0 16 16" width="16" xmlns="http://www.w3.org/2000/svg"><path d="m11.1274 10.4233.875-.87496c.1368-.13672.3829-.02734.3829.16406v3.9648c0 .7383-.6016 1.3125-1.3125 1.3125h-9.62505c-.738277 0-1.312496-.5742-1.312496-1.3125v-9.62495c0-.71094.574219-1.3125 1.312496-1.3125h7.46485c.1914 0 .30078.24609.16406.38281l-.875.875c-.05469.05469-.10937.05469-.16406.05469h-6.58985v9.62495h9.62505v-3.0898c0-.0547 0-.1094.0546-.1641zm4.2657-5.49605-7.1641 7.16405-2.48828.2734c-.71093.0821-1.3125-.5195-1.23047-1.2304l.27344-2.4883 7.16411-7.16407c.6289-.628903 1.6406-.628903 2.2695 0l1.1758 1.17578c.6289.62891.6289 1.64063 0 2.26954zm-2.6797.82031-1.586-1.58594-5.0859 5.08594-.21875 1.80464 1.80469-.2187zm1.75-2.16016-1.1758-1.17578c-.1094-.13672-.3008-.13672-.4102 0l-.8203.82031 1.586 1.61328.8476-.84765c.1094-.13672.1094-.30078-.0273-.41016z" fill="#2e1401"/></svg>