<svg width="24" height="25" viewBox="0 0 24 25" fill="none" xmlns="http://www.w3.org/2000/svg">
<path d="M11.125 1.90723C11.4923 1.1975 12.5077 1.1975 12.875 1.90723L16.1035 8.15234C16.2685 8.47136 16.5286 8.73147 16.8477 8.89648L23.0928 12.125C23.8025 12.4923 23.8025 13.5077 23.0928 13.875L16.8477 17.1035C16.5286 17.2685 16.2685 17.5286 16.1035 17.8477L12.875 24.0928C12.5077 24.8025 11.4923 24.8025 11.125 24.0928L7.89648 17.8477C7.73147 17.5286 7.47136 17.2685 7.15234 17.1035L0.907227 13.875C0.197502 13.5077 0.1975 12.4923 0.907227 12.125L7.15234 8.89648C7.47137 8.73146 7.73146 8.47137 7.89648 8.15234L11.125 1.90723Z" fill="#2E1401" stroke="#2E1401" stroke-width="0.75"/>
<path d="M11.125 0.907227C11.4923 0.1975 12.5077 0.197502 12.875 0.907227L16.1035 7.15234C16.2685 7.47136 16.5286 7.73147 16.8477 7.89648L23.0928 11.125C23.8025 11.4923 23.8025 12.5077 23.0928 12.875L16.8477 16.1035C16.5286 16.2685 16.2685 16.5286 16.1035 16.8477L12.875 23.0928C12.5077 23.8025 11.4923 23.8025 11.125 23.0928L7.89648 16.8477C7.73147 16.5286 7.47136 16.2685 7.15234 16.1035L0.907227 12.875C0.197502 12.5077 0.1975 11.4923 0.907227 11.125L7.15234 7.89648C7.47137 7.73146 7.73146 7.47137 7.89648 7.15234L11.125 0.907227Z" fill="#92ADEB" stroke="#2E1401" stroke-width="0.75"/>
</svg>
