<svg fill="none" height="360" viewBox="0 0 776 360" width="776" xmlns="http://www.w3.org/2000/svg" xmlns:xlink="http://www.w3.org/1999/xlink"><radialGradient id="a" cx="0" cy="0" gradientTransform="matrix(0 180.75 -266.135 0 388 181.75)" gradientUnits="userSpaceOnUse" r="1"><stop offset="0" stop-color="#2e1401"/><stop offset="1" stop-color="#2e1401" stop-opacity=".3"/></radialGradient><clipPath id="b"><path d="m0 0h776v360h-776z"/></clipPath><g clip-path="url(#b)"><path d="m45.6472-10h-45.6472v43.9194m45.6472-43.9194v43.9194m0-43.9194h45.6471m-91.2943 43.9194h45.6472m-45.6472 0v43.9198m45.6472-43.9198h45.6471m-45.6471 0v43.9198m45.6471-87.8392v43.9194m0-43.9194h45.6467m-45.6467 43.9194h45.6467m-45.6467 0v43.9198m-45.6471 0h-45.6472m45.6472 0h45.6471m-45.6471 0v43.9188m-45.6472-43.9188v43.9188m136.941-131.758v43.9194m0-43.9194h45.648m-45.648 43.9194h45.648m-45.648 0v43.9198m-45.6467 0h45.6467m-45.6467 0v43.9188m91.2947-131.758v43.9194m0-43.9194h45.647m-45.647 43.9194h45.647m-45.647 0v43.9198m-45.648 0h45.648m-45.648 0v43.9188m91.295-131.758v43.9194m0-43.9194h45.647m-45.647 43.9194h45.647m-45.647 0v43.9198m-45.647 0h45.647m-45.647 0v43.9188m91.294-131.758v43.9194m0-43.9194h45.647m-45.647 43.9194h45.647m-45.647 0v43.9198m-45.647 0h45.647m-45.647 0v43.9188m91.294-131.758v43.9194m0-43.9194h45.647m-45.647 43.9194h45.647m-45.647 0v43.9198m-45.647 0h45.647m-45.647 0v43.9188m91.294-131.758v43.9194m0-43.9194h45.647m-45.647 43.9194h45.647m-45.647 0v43.9198m-45.647 0h45.647m-45.647 0v43.9188m91.294-131.758v43.9194m0-43.9194h45.648m-45.648 43.9194h45.648m-45.648 0v43.9198m-45.647 0h45.647m-45.647 0v43.9188m91.295-131.758v43.9194m0-43.9194h45.646m-45.646 43.9194h45.646m-45.646 0v43.9198m-45.648 0h45.648m-45.648 0v43.9188m91.294-131.758v43.9194m0-43.9194h45.648m-45.648 43.9194h45.648m-45.648 0v43.9198m-45.646 0h45.646m-45.646 0v43.9188m91.294-131.758v43.9194m0-43.9194h45.648m-45.648 43.9194h45.648m-45.648 0v43.9198m-45.648 0h45.648m-45.648 0v43.9188m91.296-131.758v43.9194m0-43.9194h45.645m-45.645 43.9194h45.645m-45.645 0v43.9198m-45.648 0h45.648m-45.648 0v43.9188m91.293-131.758v43.9194m0-43.9194h45.648m-45.648 43.9194h45.648m-45.648 0v43.9198m-45.645 0h45.645m-45.645 0v43.9188m91.293-131.758v43.9194m0-43.9194h45.649m-45.649 43.9194h45.649m-45.649 0v43.9198m-45.648 0h45.648m-45.648 0v43.9188m91.297-131.758v43.9194m0-43.9194h45.644v43.9194m-45.644 0h45.644m-45.644 0v43.9198m-45.649 0h45.649m-45.649 0v43.9188m91.293-87.8386v43.9198m-45.644 0h45.644m-45.644 0v43.9188m45.644-43.9188v43.9188m-730.3528 0h-45.6472m45.6472 0h45.6471m-45.6471 0v43.92m-45.6472-43.92v43.92m91.2943-43.92h45.6467m-45.6467 0v43.92m45.6467-43.92h45.648m-45.648 0v43.92m45.648-43.92h45.647m-45.647 0v43.92m45.647-43.92h45.647m-45.647 0v43.92m45.647-43.92h45.647m-45.647 0v43.92m45.647-43.92h45.647m-45.647 0v43.92m45.647-43.92h45.647m-45.647 0v43.92m45.647-43.92h45.648m-45.648 0v43.92m45.648-43.92h45.646m-45.646 0v43.92m45.646-43.92h45.648m-45.648 0v43.92m45.648-43.92h45.648m-45.648 0v43.92m45.648-43.92h45.645m-45.645 0v43.92m45.645-43.92h45.648m-45.648 0v43.92m45.648-43.92h45.649m-45.649 0v43.92m45.649-43.92h45.644m-45.644 0v43.92m45.644-43.92v43.92m-730.3528 0h-45.6472m45.6472 0h45.6471m-45.6471 0v43.919m-45.6472-43.919v43.919m91.2943-43.919h45.6467m-45.6467 0v43.919m45.6467-43.919h45.648m-45.648 0v43.919m45.648-43.919h45.647m-45.647 0v43.919m45.647-43.919h45.647m-45.647 0v43.919m45.647-43.919h45.647m-45.647 0v43.919m45.647-43.919h45.647m-45.647 0v43.919m45.647-43.919h45.647m-45.647 0v43.919m45.647-43.919h45.648m-45.648 0v43.919m45.648-43.919h45.646m-45.646 0v43.919m45.646-43.919h45.648m-45.648 0v43.919m45.648-43.919h45.648m-45.648 0v43.919m45.648-43.919h45.645m-45.645 0v43.919m45.645-43.919h45.648m-45.648 0v43.919m45.648-43.919h45.649m-45.649 0v43.919m45.649-43.919h45.644m-45.644 0v43.919m45.644-43.919v43.919m-730.3528 0h-45.6472m45.6472 0h45.6471m-45.6471 0v43.92m-45.6472-43.92v43.92m91.2943-43.92h45.6467m-45.6467 0v43.92m45.6467-43.92h45.648m-45.648 0v43.92m45.648-43.92h45.647m-45.647 0v43.92m45.647-43.92h45.647m-45.647 0v43.92m45.647-43.92h45.647m-45.647 0v43.92m45.647-43.92h45.647m-45.647 0v43.92m45.647-43.92h45.647m-45.647 0v43.92m45.647-43.92h45.648m-45.648 0v43.92m45.648-43.92h45.646m-45.646 0v43.92m45.646-43.92h45.648m-45.648 0v43.92m45.648-43.92h45.648m-45.648 0v43.92m45.648-43.92h45.645m-45.645 0v43.92m45.645-43.92h45.648m-45.648 0v43.92m45.648-43.92h45.649m-45.649 0v43.92m45.649-43.92h45.644m-45.644 0v43.92m45.644-43.92v43.92m-730.3528 0h-45.6472m45.6472 0h45.6471m-45.6471 0v43.919m-45.6472-43.919v43.919m91.2943-43.919h45.6467m-45.6467 0v43.919m45.6467-43.919h45.648m-45.648 0v43.919m45.648-43.919h45.647m-45.647 0v43.919m45.647-43.919h45.647m-45.647 0v43.919m45.647-43.919h45.647m-45.647 0v43.919m45.647-43.919h45.647m-45.647 0v43.919m45.647-43.919h45.647m-45.647 0v43.919m45.647-43.919h45.648m-45.648 0v43.919m45.648-43.919h45.646m-45.646 0v43.919m45.646-43.919h45.648m-45.648 0v43.919m45.648-43.919h45.648m-45.648 0v43.919m45.648-43.919h45.645m-45.645 0v43.919m45.645-43.919h45.648m-45.648 0v43.919m45.648-43.919h45.649m-45.649 0v43.919m45.649-43.919h45.644m-45.644 0v43.919m45.644-43.919v43.919m-730.3528 0h-45.6472m45.6472 0h45.6471m-45.6471 0v43.919m-45.6472-43.919v43.919m91.2943-43.919h45.6467m-45.6467 0v43.919m45.6467-43.919h45.648m-45.648 0v43.919m45.648-43.919h45.647m-45.647 0v43.919m45.647-43.919h45.647m-45.647 0v43.919m45.647-43.919h45.647m-45.647 0v43.919m45.647-43.919h45.647m-45.647 0v43.919m45.647-43.919h45.647m-45.647 0v43.919m45.647-43.919h45.648m-45.648 0v43.919m45.648-43.919h45.646m-45.646 0v43.919m45.646-43.919h45.648m-45.648 0v43.919m45.648-43.919h45.648m-45.648 0v43.919m45.648-43.919h45.645m-45.645 0v43.919m45.645-43.919h45.648m-45.648 0v43.919m45.648-43.919h45.649m-45.649 0v43.919m45.649-43.919h45.644m-45.644 0v43.919m45.644-43.919v43.919m-730.3528 0h-45.6472m45.6472 0h45.6471m-45.6471 0v43.92m-45.6472-43.92v43.92m91.2943-43.92h45.6467m-45.6467 0v43.92m45.6467-43.92h45.648m-45.648 0v43.92m45.648-43.92h45.647m-45.647 0v43.92m45.647-43.92h45.647m-45.647 0v43.92m45.647-43.92h45.647m-45.647 0v43.92m45.647-43.92h45.647m-45.647 0v43.92m45.647-43.92h45.647m-45.647 0v43.92m45.647-43.92h45.648m-45.648 0v43.92m45.648-43.92h45.646m-45.646 0v43.92m45.646-43.92h45.648m-45.648 0v43.92m45.648-43.92h45.648m-45.648 0v43.92m45.648-43.92h45.645m-45.645 0v43.92m45.645-43.92h45.648m-45.648 0v43.92m45.648-43.92h45.649m-45.649 0v43.92m45.649-43.92h45.644m-45.644 0v43.92m45.644-43.92v43.92m-730.3528 0h-45.6472m45.6472 0h45.6471m-45.6471 0v43.919m-45.6472-43.919v43.919m91.2943-43.919h45.6467m-45.6467 0v43.919m45.6467-43.919h45.648m-45.648 0v43.919m45.648-43.919h45.647m-45.647 0v43.919m45.647-43.919h45.647m-45.647 0v43.919m45.647-43.919h45.647m-45.647 0v43.919m45.647-43.919h45.647m-45.647 0v43.919m45.647-43.919h45.647m-45.647 0v43.919m45.647-43.919h45.648m-45.648 0v43.919m45.648-43.919h45.646m-45.646 0v43.919m45.646-43.919h45.648m-45.648 0v43.919m45.648-43.919h45.648m-45.648 0v43.919m45.648-43.919h45.645m-45.645 0v43.919m45.645-43.919h45.648m-45.648 0v43.919m45.648-43.919h45.649m-45.649 0v43.919m45.649-43.919h45.644m-45.644 0v43.919m45.644-43.919v43.919m-730.3528 0h-45.6472m45.6472 0h45.6471m-45.6471 0v43.92m-45.6472-43.92v43.92m91.2943-43.92h45.6467m-45.6467 0v43.92m45.6467-43.92h45.648m-45.648 0v43.92m45.648-43.92h45.647m-45.647 0v43.92m45.647-43.92h45.647m-45.647 0v43.92m45.647-43.92h45.647m-45.647 0v43.92m45.647-43.92h45.647m-45.647 0v43.92m45.647-43.92h45.647m-45.647 0v43.92m45.647-43.92h45.648m-45.648 0v43.92m45.648-43.92h45.646m-45.646 0v43.92m45.646-43.92h45.648m-45.648 0v43.92m45.648-43.92h45.648m-45.648 0v43.92m45.648-43.92h45.645m-45.645 0v43.92m45.645-43.92h45.648m-45.648 0v43.92m45.648-43.92h45.649m-45.649 0v43.92m45.649-43.92h45.644m-45.644 0v43.92m45.644-43.92v43.92m-730.3528 0h-45.6472m45.6472 0h45.6471m-45.6471 0v43.919m-45.6472-43.919v43.919h45.6472m45.6471-43.919h45.6467m-45.6467 0v43.919m45.6467-43.919h45.648m-45.648 0v43.919m45.648-43.919h45.647m-45.647 0v43.919m45.647-43.919h45.647m-45.647 0v43.919m45.647-43.919h45.647m-45.647 0v43.919m45.647-43.919h45.647m-45.647 0v43.919m45.647-43.919h45.647m-45.647 0v43.919m45.647-43.919h45.648m-45.648 0v43.919m45.648-43.919h45.646m-45.646 0v43.919m45.646-43.919h45.648m-45.648 0v43.919m45.648-43.919h45.648m-45.648 0v43.919m45.648-43.919h45.645m-45.645 0v43.919m45.645-43.919h45.648m-45.648 0v43.919m45.648-43.919h45.649m-45.649 0v43.919m45.649-43.919h45.644m-45.644 0v43.919m45.644-43.919v43.919h-45.644m-684.7088 0h45.6471m0 0h45.6467m0 0h45.648m0 0h45.647m0 0h45.647m0 0h45.647m0 0h45.647m0 0h45.647m0 0h45.648m0 0h45.646m0 0h45.648m0 0h45.648m0 0h45.645m0 0h45.648m0 0h45.649" opacity=".1" stroke="url(#a)" stroke-width=".538889"/></g></svg>